<mxfile host="65bd71144e">
    <diagram id="JiPeBnl8MNzj9gC05diy" name="Page-1">
        <mxGraphModel dx="1409" dy="531" grid="1" gridSize="10" guides="1" tooltips="1" connect="1" arrows="1" fold="1" page="1" pageScale="1" pageWidth="827" pageHeight="1169" math="0" shadow="0">
            <root>
                <mxCell id="0"/>
                <mxCell id="1" parent="0"/>
                <mxCell id="uBmhupHGeQe9Bv0V8wx_-3" value="" style="endArrow=none;html=1;strokeWidth=10;" parent="1" edge="1">
                    <mxGeometry width="50" height="50" relative="1" as="geometry">
                        <mxPoint y="100" as="sourcePoint"/>
                        <mxPoint x="500" y="100" as="targetPoint"/>
                    </mxGeometry>
                </mxCell>
                <mxCell id="uBmhupHGeQe9Bv0V8wx_-4" value="" style="endArrow=none;html=1;strokeWidth=10;" parent="1" edge="1">
                    <mxGeometry width="50" height="50" relative="1" as="geometry">
                        <mxPoint x="250" y="240" as="sourcePoint"/>
                        <mxPoint x="250" y="100" as="targetPoint"/>
                    </mxGeometry>
                </mxCell>
                <mxCell id="uBmhupHGeQe9Bv0V8wx_-5" value="" style="endArrow=none;html=1;strokeWidth=12;" parent="1" edge="1">
                    <mxGeometry width="50" height="50" relative="1" as="geometry">
                        <mxPoint x="180" y="240" as="sourcePoint"/>
                        <mxPoint x="320" y="240" as="targetPoint"/>
                    </mxGeometry>
                </mxCell>
                <mxCell id="uBmhupHGeQe9Bv0V8wx_-6" value="" style="endArrow=none;html=1;strokeWidth=12;" parent="1" edge="1">
                    <mxGeometry width="50" height="50" relative="1" as="geometry">
                        <mxPoint x="180" y="270" as="sourcePoint"/>
                        <mxPoint x="320" y="270" as="targetPoint"/>
                    </mxGeometry>
                </mxCell>
                <mxCell id="uBmhupHGeQe9Bv0V8wx_-7" value="" style="endArrow=none;html=1;strokeWidth=10;" parent="1" edge="1">
                    <mxGeometry width="50" height="50" relative="1" as="geometry">
                        <mxPoint x="250" y="420" as="sourcePoint"/>
                        <mxPoint x="250" y="270" as="targetPoint"/>
                    </mxGeometry>
                </mxCell>
                <mxCell id="uBmhupHGeQe9Bv0V8wx_-8" value="" style="endArrow=none;html=1;strokeWidth=10;" parent="1" edge="1">
                    <mxGeometry width="50" height="50" relative="1" as="geometry">
                        <mxPoint x="250" y="420" as="sourcePoint"/>
                        <mxPoint x="250" y="420" as="targetPoint"/>
                        <Array as="points">
                            <mxPoint x="310" y="420"/>
                            <mxPoint x="250" y="470"/>
                            <mxPoint x="190" y="420"/>
                        </Array>
                    </mxGeometry>
                </mxCell>
                <mxCell id="uBmhupHGeQe9Bv0V8wx_-11" value="" style="endArrow=none;html=1;strokeWidth=10;" parent="1" edge="1">
                    <mxGeometry width="50" height="50" relative="1" as="geometry">
                        <mxPoint x="500" y="100" as="sourcePoint"/>
                        <mxPoint x="730" y="100" as="targetPoint"/>
                    </mxGeometry>
                </mxCell>
                <mxCell id="uBmhupHGeQe9Bv0V8wx_-12" value="" style="endArrow=none;html=1;strokeWidth=12;" parent="1" edge="1">
                    <mxGeometry width="50" height="50" relative="1" as="geometry">
                        <mxPoint x="735" y="30" as="sourcePoint"/>
                        <mxPoint x="735" y="170" as="targetPoint"/>
                    </mxGeometry>
                </mxCell>
                <mxCell id="uBmhupHGeQe9Bv0V8wx_-15" value="" style="endArrow=none;html=1;strokeWidth=12;" parent="1" edge="1">
                    <mxGeometry width="50" height="50" relative="1" as="geometry">
                        <mxPoint x="765" y="30" as="sourcePoint"/>
                        <mxPoint x="765" y="170" as="targetPoint"/>
                    </mxGeometry>
                </mxCell>
                <mxCell id="uBmhupHGeQe9Bv0V8wx_-16" value="" style="endArrow=none;html=1;strokeWidth=10;" parent="1" edge="1">
                    <mxGeometry width="50" height="50" relative="1" as="geometry">
                        <mxPoint x="770" y="100" as="sourcePoint"/>
                        <mxPoint x="1000" y="100" as="targetPoint"/>
                    </mxGeometry>
                </mxCell>
                <mxCell id="uBmhupHGeQe9Bv0V8wx_-25" value="" style="endArrow=none;html=1;strokeWidth=10;" parent="1" edge="1">
                    <mxGeometry width="50" height="50" relative="1" as="geometry">
                        <mxPoint x="1000" y="100" as="sourcePoint"/>
                        <mxPoint x="1500" y="100" as="targetPoint"/>
                    </mxGeometry>
                </mxCell>
                <mxCell id="uBmhupHGeQe9Bv0V8wx_-26" value="" style="endArrow=none;html=1;strokeWidth=10;" parent="1" edge="1">
                    <mxGeometry width="50" height="50" relative="1" as="geometry">
                        <mxPoint x="1250" y="190" as="sourcePoint"/>
                        <mxPoint x="1250" y="100" as="targetPoint"/>
                    </mxGeometry>
                </mxCell>
                <mxCell id="uBmhupHGeQe9Bv0V8wx_-29" value="" style="endArrow=none;html=1;strokeWidth=10;" parent="1" edge="1">
                    <mxGeometry width="50" height="50" relative="1" as="geometry">
                        <mxPoint x="1250" y="420" as="sourcePoint"/>
                        <mxPoint x="1250" y="320" as="targetPoint"/>
                    </mxGeometry>
                </mxCell>
                <mxCell id="uBmhupHGeQe9Bv0V8wx_-30" value="" style="endArrow=none;html=1;strokeWidth=10;" parent="1" edge="1">
                    <mxGeometry width="50" height="50" relative="1" as="geometry">
                        <mxPoint x="1250" y="420" as="sourcePoint"/>
                        <mxPoint x="1250" y="420" as="targetPoint"/>
                        <Array as="points">
                            <mxPoint x="1310" y="420"/>
                            <mxPoint x="1250" y="470"/>
                            <mxPoint x="1190" y="420"/>
                        </Array>
                    </mxGeometry>
                </mxCell>
                <mxCell id="uBmhupHGeQe9Bv0V8wx_-31" value="" style="endArrow=none;html=1;strokeWidth=10;curved=1;" parent="1" edge="1">
                    <mxGeometry width="50" height="50" relative="1" as="geometry">
                        <mxPoint x="1250" y="314" as="sourcePoint"/>
                        <mxPoint x="1250" y="274" as="targetPoint"/>
                        <Array as="points">
                            <mxPoint x="1200" y="294"/>
                        </Array>
                    </mxGeometry>
                </mxCell>
                <mxCell id="uBmhupHGeQe9Bv0V8wx_-32" value="" style="endArrow=none;html=1;strokeWidth=10;curved=1;" parent="1" edge="1">
                    <mxGeometry width="50" height="50" relative="1" as="geometry">
                        <mxPoint x="1250" y="274" as="sourcePoint"/>
                        <mxPoint x="1250" y="234" as="targetPoint"/>
                        <Array as="points">
                            <mxPoint x="1200" y="254"/>
                        </Array>
                    </mxGeometry>
                </mxCell>
                <mxCell id="uBmhupHGeQe9Bv0V8wx_-33" value="" style="endArrow=none;html=1;strokeWidth=10;curved=1;" parent="1" edge="1">
                    <mxGeometry width="50" height="50" relative="1" as="geometry">
                        <mxPoint x="1250" y="234" as="sourcePoint"/>
                        <mxPoint x="1250" y="194" as="targetPoint"/>
                        <Array as="points">
                            <mxPoint x="1200" y="214"/>
                        </Array>
                    </mxGeometry>
                </mxCell>
                <mxCell id="uBmhupHGeQe9Bv0V8wx_-35" value="" style="endArrow=none;html=1;strokeWidth=10;" parent="1" edge="1">
                    <mxGeometry width="50" height="50" relative="1" as="geometry">
                        <mxPoint x="1500" y="100" as="sourcePoint"/>
                        <mxPoint x="1690" y="100" as="targetPoint"/>
                    </mxGeometry>
                </mxCell>
                <mxCell id="uBmhupHGeQe9Bv0V8wx_-38" value="" style="endArrow=none;html=1;strokeWidth=10;" parent="1" edge="1">
                    <mxGeometry width="50" height="50" relative="1" as="geometry">
                        <mxPoint x="1810" y="100" as="sourcePoint"/>
                        <mxPoint x="2000" y="100" as="targetPoint"/>
                    </mxGeometry>
                </mxCell>
                <mxCell id="uBmhupHGeQe9Bv0V8wx_-42" value="" style="endArrow=none;html=1;strokeWidth=10;curved=1;" parent="1" edge="1">
                    <mxGeometry width="50" height="50" relative="1" as="geometry">
                        <mxPoint x="1690" y="100" as="sourcePoint"/>
                        <mxPoint x="1730" y="100" as="targetPoint"/>
                        <Array as="points">
                            <mxPoint x="1710" y="50"/>
                        </Array>
                    </mxGeometry>
                </mxCell>
                <mxCell id="uBmhupHGeQe9Bv0V8wx_-43" value="" style="endArrow=none;html=1;strokeWidth=10;curved=1;" parent="1" edge="1">
                    <mxGeometry width="50" height="50" relative="1" as="geometry">
                        <mxPoint x="1730" y="100" as="sourcePoint"/>
                        <mxPoint x="1770" y="100" as="targetPoint"/>
                        <Array as="points">
                            <mxPoint x="1750" y="50"/>
                        </Array>
                    </mxGeometry>
                </mxCell>
                <mxCell id="uBmhupHGeQe9Bv0V8wx_-44" value="" style="endArrow=none;html=1;strokeWidth=10;curved=1;" parent="1" edge="1">
                    <mxGeometry width="50" height="50" relative="1" as="geometry">
                        <mxPoint x="1770" y="100" as="sourcePoint"/>
                        <mxPoint x="1810" y="100" as="targetPoint"/>
                        <Array as="points">
                            <mxPoint x="1790" y="50"/>
                        </Array>
                    </mxGeometry>
                </mxCell>
                <mxCell id="uBmhupHGeQe9Bv0V8wx_-46" value="" style="endArrow=none;html=1;strokeWidth=10;" parent="1" edge="1">
                    <mxGeometry width="50" height="50" relative="1" as="geometry">
                        <mxPoint x="2000" y="100" as="sourcePoint"/>
                        <mxPoint x="2500" y="100" as="targetPoint"/>
                    </mxGeometry>
                </mxCell>
                <mxCell id="uBmhupHGeQe9Bv0V8wx_-47" value="" style="endArrow=none;html=1;strokeWidth=10;" parent="1" edge="1">
                    <mxGeometry width="50" height="50" relative="1" as="geometry">
                        <mxPoint x="2250" y="200" as="sourcePoint"/>
                        <mxPoint x="2250" y="100" as="targetPoint"/>
                    </mxGeometry>
                </mxCell>
                <mxCell id="uBmhupHGeQe9Bv0V8wx_-48" value="" style="endArrow=none;html=1;strokeWidth=10;" parent="1" edge="1">
                    <mxGeometry width="50" height="50" relative="1" as="geometry">
                        <mxPoint x="2250" y="420" as="sourcePoint"/>
                        <mxPoint x="2250" y="320" as="targetPoint"/>
                    </mxGeometry>
                </mxCell>
                <mxCell id="uBmhupHGeQe9Bv0V8wx_-49" value="" style="endArrow=none;html=1;strokeWidth=10;" parent="1" edge="1">
                    <mxGeometry width="50" height="50" relative="1" as="geometry">
                        <mxPoint x="2250" y="420" as="sourcePoint"/>
                        <mxPoint x="2250" y="420" as="targetPoint"/>
                        <Array as="points">
                            <mxPoint x="2310" y="420"/>
                            <mxPoint x="2250" y="470"/>
                            <mxPoint x="2190" y="420"/>
                        </Array>
                    </mxGeometry>
                </mxCell>
                <mxCell id="uBmhupHGeQe9Bv0V8wx_-53" value="" style="endArrow=none;html=1;strokeWidth=10;" parent="1" edge="1">
                    <mxGeometry width="50" height="50" relative="1" as="geometry">
                        <mxPoint x="2280" y="210" as="sourcePoint"/>
                        <mxPoint x="2250" y="200" as="targetPoint"/>
                    </mxGeometry>
                </mxCell>
                <mxCell id="uBmhupHGeQe9Bv0V8wx_-54" value="" style="endArrow=none;html=1;strokeWidth=10;" parent="1" edge="1">
                    <mxGeometry width="50" height="50" relative="1" as="geometry">
                        <mxPoint x="2280" y="250" as="sourcePoint"/>
                        <mxPoint x="2220" y="229.9999999999999" as="targetPoint"/>
                    </mxGeometry>
                </mxCell>
                <mxCell id="uBmhupHGeQe9Bv0V8wx_-55" value="" style="endArrow=none;html=1;strokeWidth=10;" parent="1" edge="1">
                    <mxGeometry width="50" height="50" relative="1" as="geometry">
                        <mxPoint x="2280" y="290" as="sourcePoint"/>
                        <mxPoint x="2220" y="269.9999999999999" as="targetPoint"/>
                    </mxGeometry>
                </mxCell>
                <mxCell id="uBmhupHGeQe9Bv0V8wx_-56" value="" style="endArrow=none;html=1;strokeWidth=10;" parent="1" edge="1">
                    <mxGeometry width="50" height="50" relative="1" as="geometry">
                        <mxPoint x="2280" y="250" as="sourcePoint"/>
                        <mxPoint x="2220" y="270" as="targetPoint"/>
                    </mxGeometry>
                </mxCell>
                <mxCell id="uBmhupHGeQe9Bv0V8wx_-57" value="" style="endArrow=none;html=1;strokeWidth=10;" parent="1" edge="1">
                    <mxGeometry width="50" height="50" relative="1" as="geometry">
                        <mxPoint x="2280" y="209.9999999999999" as="sourcePoint"/>
                        <mxPoint x="2220" y="230" as="targetPoint"/>
                    </mxGeometry>
                </mxCell>
                <mxCell id="uBmhupHGeQe9Bv0V8wx_-59" value="" style="endArrow=none;html=1;strokeWidth=10;" parent="1" edge="1">
                    <mxGeometry width="50" height="50" relative="1" as="geometry">
                        <mxPoint x="2280" y="289.9999999999999" as="sourcePoint"/>
                        <mxPoint x="2220" y="310" as="targetPoint"/>
                    </mxGeometry>
                </mxCell>
                <mxCell id="uBmhupHGeQe9Bv0V8wx_-60" value="" style="endArrow=none;html=1;strokeWidth=10;" parent="1" edge="1">
                    <mxGeometry width="50" height="50" relative="1" as="geometry">
                        <mxPoint x="2250" y="319.9999999999999" as="sourcePoint"/>
                        <mxPoint x="2220" y="309.9999999999999" as="targetPoint"/>
                    </mxGeometry>
                </mxCell>
                <mxCell id="uBmhupHGeQe9Bv0V8wx_-63" value="" style="endArrow=none;html=1;strokeWidth=10;" parent="1" edge="1">
                    <mxGeometry width="50" height="50" relative="1" as="geometry">
                        <mxPoint x="2500" y="99.99999999999989" as="sourcePoint"/>
                        <mxPoint x="2690" y="99.99999999999989" as="targetPoint"/>
                    </mxGeometry>
                </mxCell>
                <mxCell id="uBmhupHGeQe9Bv0V8wx_-64" value="" style="endArrow=none;html=1;strokeWidth=10;" parent="1" edge="1">
                    <mxGeometry width="50" height="50" relative="1" as="geometry">
                        <mxPoint x="2810" y="99.99999999999989" as="sourcePoint"/>
                        <mxPoint x="3000" y="99.99999999999989" as="targetPoint"/>
                    </mxGeometry>
                </mxCell>
                <mxCell id="uBmhupHGeQe9Bv0V8wx_-68" value="" style="endArrow=none;html=1;strokeWidth=10;" parent="1" edge="1">
                    <mxGeometry width="50" height="50" relative="1" as="geometry">
                        <mxPoint x="2700" y="70" as="sourcePoint"/>
                        <mxPoint x="2690" y="99.99999999999989" as="targetPoint"/>
                    </mxGeometry>
                </mxCell>
                <mxCell id="uBmhupHGeQe9Bv0V8wx_-69" value="" style="endArrow=none;html=1;strokeWidth=10;" parent="1" edge="1">
                    <mxGeometry width="50" height="50" relative="1" as="geometry">
                        <mxPoint x="2700" y="69.99999999999989" as="sourcePoint"/>
                        <mxPoint x="2720" y="130" as="targetPoint"/>
                    </mxGeometry>
                </mxCell>
                <mxCell id="uBmhupHGeQe9Bv0V8wx_-70" value="" style="endArrow=none;html=1;strokeWidth=10;" parent="1" edge="1">
                    <mxGeometry width="50" height="50" relative="1" as="geometry">
                        <mxPoint x="2740" y="69.99999999999989" as="sourcePoint"/>
                        <mxPoint x="2760" y="130" as="targetPoint"/>
                    </mxGeometry>
                </mxCell>
                <mxCell id="uBmhupHGeQe9Bv0V8wx_-71" value="" style="endArrow=none;html=1;strokeWidth=10;" parent="1" edge="1">
                    <mxGeometry width="50" height="50" relative="1" as="geometry">
                        <mxPoint x="2780" y="69.99999999999989" as="sourcePoint"/>
                        <mxPoint x="2800" y="130" as="targetPoint"/>
                    </mxGeometry>
                </mxCell>
                <mxCell id="uBmhupHGeQe9Bv0V8wx_-72" value="" style="endArrow=none;html=1;strokeWidth=10;" parent="1" edge="1">
                    <mxGeometry width="50" height="50" relative="1" as="geometry">
                        <mxPoint x="2740" y="70" as="sourcePoint"/>
                        <mxPoint x="2720" y="129.9999999999999" as="targetPoint"/>
                    </mxGeometry>
                </mxCell>
                <mxCell id="uBmhupHGeQe9Bv0V8wx_-73" value="" style="endArrow=none;html=1;strokeWidth=10;" parent="1" edge="1">
                    <mxGeometry width="50" height="50" relative="1" as="geometry">
                        <mxPoint x="2780" y="69.99999999999989" as="sourcePoint"/>
                        <mxPoint x="2760" y="129.9999999999999" as="targetPoint"/>
                    </mxGeometry>
                </mxCell>
                <mxCell id="uBmhupHGeQe9Bv0V8wx_-74" value="" style="endArrow=none;html=1;strokeWidth=10;" parent="1" edge="1">
                    <mxGeometry width="50" height="50" relative="1" as="geometry">
                        <mxPoint x="2810" y="99.99999999999989" as="sourcePoint"/>
                        <mxPoint x="2800" y="129.9999999999999" as="targetPoint"/>
                    </mxGeometry>
                </mxCell>
                <mxCell id="uBmhupHGeQe9Bv0V8wx_-76" value="" style="endArrow=none;html=1;strokeWidth=10;" parent="1" edge="1">
                    <mxGeometry width="50" height="50" relative="1" as="geometry">
                        <mxPoint x="3000" y="100" as="sourcePoint"/>
                        <mxPoint x="3190" y="100" as="targetPoint"/>
                    </mxGeometry>
                </mxCell>
                <mxCell id="uBmhupHGeQe9Bv0V8wx_-77" value="" style="endArrow=none;html=1;strokeWidth=10;" parent="1" edge="1">
                    <mxGeometry width="50" height="50" relative="1" as="geometry">
                        <mxPoint x="3320" y="100" as="sourcePoint"/>
                        <mxPoint x="3500" y="100" as="targetPoint"/>
                    </mxGeometry>
                </mxCell>
                <mxCell id="uBmhupHGeQe9Bv0V8wx_-86" value="&lt;font style=&quot;font-size: 32px&quot;&gt;Zo&lt;/font&gt;" style="rounded=0;whiteSpace=wrap;html=1;glass=0;strokeColor=#000000;fillColor=none;strokeWidth=10;" parent="1" vertex="1">
                    <mxGeometry x="3190" y="60" width="130" height="80" as="geometry"/>
                </mxCell>
                <mxCell id="uBmhupHGeQe9Bv0V8wx_-92" value="" style="endArrow=none;html=1;strokeWidth=10;" parent="1" edge="1">
                    <mxGeometry width="50" height="50" relative="1" as="geometry">
                        <mxPoint x="3500" y="100" as="sourcePoint"/>
                        <mxPoint x="4000" y="100" as="targetPoint"/>
                    </mxGeometry>
                </mxCell>
                <mxCell id="uBmhupHGeQe9Bv0V8wx_-93" value="" style="endArrow=none;html=1;strokeWidth=10;" parent="1" edge="1">
                    <mxGeometry width="50" height="50" relative="1" as="geometry">
                        <mxPoint x="3750" y="200" as="sourcePoint"/>
                        <mxPoint x="3750" y="100" as="targetPoint"/>
                    </mxGeometry>
                </mxCell>
                <mxCell id="uBmhupHGeQe9Bv0V8wx_-103" value="" style="rounded=0;whiteSpace=wrap;html=1;glass=0;strokeColor=#000000;fillColor=none;strokeWidth=10;" parent="1" vertex="1">
                    <mxGeometry x="3700" y="200" width="100" height="120" as="geometry"/>
                </mxCell>
                <mxCell id="uBmhupHGeQe9Bv0V8wx_-105" value="" style="endArrow=none;html=1;strokeWidth=10;" parent="1" edge="1">
                    <mxGeometry width="50" height="50" relative="1" as="geometry">
                        <mxPoint x="4000" y="100" as="sourcePoint"/>
                        <mxPoint x="4500" y="100" as="targetPoint"/>
                    </mxGeometry>
                </mxCell>
                <mxCell id="uBmhupHGeQe9Bv0V8wx_-106" value="" style="endArrow=none;html=1;strokeWidth=10;" parent="1" edge="1">
                    <mxGeometry width="50" height="50" relative="1" as="geometry">
                        <mxPoint x="4250" y="200" as="sourcePoint"/>
                        <mxPoint x="4250" y="100" as="targetPoint"/>
                    </mxGeometry>
                </mxCell>
                <mxCell id="uBmhupHGeQe9Bv0V8wx_-107" value="" style="endArrow=none;html=1;strokeWidth=10;" parent="1" edge="1">
                    <mxGeometry width="50" height="50" relative="1" as="geometry">
                        <mxPoint x="4250" y="420" as="sourcePoint"/>
                        <mxPoint x="4250" y="320" as="targetPoint"/>
                    </mxGeometry>
                </mxCell>
                <mxCell id="uBmhupHGeQe9Bv0V8wx_-108" value="" style="endArrow=none;html=1;strokeWidth=10;" parent="1" edge="1">
                    <mxGeometry width="50" height="50" relative="1" as="geometry">
                        <mxPoint x="4250" y="420" as="sourcePoint"/>
                        <mxPoint x="4250" y="420" as="targetPoint"/>
                        <Array as="points">
                            <mxPoint x="4310" y="420"/>
                            <mxPoint x="4250" y="470"/>
                            <mxPoint x="4190" y="420"/>
                        </Array>
                    </mxGeometry>
                </mxCell>
                <mxCell id="uBmhupHGeQe9Bv0V8wx_-109" value="" style="rounded=0;whiteSpace=wrap;html=1;glass=0;strokeColor=#000000;fillColor=none;strokeWidth=10;" parent="1" vertex="1">
                    <mxGeometry x="4200" y="200" width="100" height="120" as="geometry"/>
                </mxCell>
                <mxCell id="uBmhupHGeQe9Bv0V8wx_-111" value="" style="endArrow=none;html=1;strokeWidth=10;" parent="1" edge="1">
                    <mxGeometry width="50" height="50" relative="1" as="geometry">
                        <mxPoint x="4500" y="100" as="sourcePoint"/>
                        <mxPoint x="5000" y="100" as="targetPoint"/>
                    </mxGeometry>
                </mxCell>
                <mxCell id="uBmhupHGeQe9Bv0V8wx_-112" value="" style="endArrow=none;html=1;strokeWidth=10;" parent="1" edge="1">
                    <mxGeometry width="50" height="50" relative="1" as="geometry">
                        <mxPoint x="4750" y="140" as="sourcePoint"/>
                        <mxPoint x="4750" y="100" as="targetPoint"/>
                    </mxGeometry>
                </mxCell>
                <mxCell id="uBmhupHGeQe9Bv0V8wx_-113" value="" style="endArrow=none;html=1;strokeWidth=12;" parent="1" edge="1">
                    <mxGeometry width="50" height="50" relative="1" as="geometry">
                        <mxPoint x="4680" y="320" as="sourcePoint"/>
                        <mxPoint x="4820" y="320" as="targetPoint"/>
                    </mxGeometry>
                </mxCell>
                <mxCell id="uBmhupHGeQe9Bv0V8wx_-114" value="" style="endArrow=none;html=1;strokeWidth=12;" parent="1" edge="1">
                    <mxGeometry width="50" height="50" relative="1" as="geometry">
                        <mxPoint x="4680" y="350" as="sourcePoint"/>
                        <mxPoint x="4820" y="350" as="targetPoint"/>
                    </mxGeometry>
                </mxCell>
                <mxCell id="uBmhupHGeQe9Bv0V8wx_-115" value="" style="endArrow=none;html=1;strokeWidth=10;" parent="1" edge="1">
                    <mxGeometry width="50" height="50" relative="1" as="geometry">
                        <mxPoint x="4750" y="420" as="sourcePoint"/>
                        <mxPoint x="4750" y="350" as="targetPoint"/>
                    </mxGeometry>
                </mxCell>
                <mxCell id="uBmhupHGeQe9Bv0V8wx_-116" value="" style="endArrow=none;html=1;strokeWidth=10;" parent="1" edge="1">
                    <mxGeometry width="50" height="50" relative="1" as="geometry">
                        <mxPoint x="4750" y="420" as="sourcePoint"/>
                        <mxPoint x="4750" y="420" as="targetPoint"/>
                        <Array as="points">
                            <mxPoint x="4810" y="420"/>
                            <mxPoint x="4750" y="470"/>
                            <mxPoint x="4690" y="420"/>
                        </Array>
                    </mxGeometry>
                </mxCell>
                <mxCell id="uBmhupHGeQe9Bv0V8wx_-126" value="" style="endArrow=none;html=1;strokeWidth=10;" parent="1" edge="1">
                    <mxGeometry width="50" height="50" relative="1" as="geometry">
                        <mxPoint x="4780" y="150" as="sourcePoint"/>
                        <mxPoint x="4750" y="140" as="targetPoint"/>
                    </mxGeometry>
                </mxCell>
                <mxCell id="uBmhupHGeQe9Bv0V8wx_-127" value="" style="endArrow=none;html=1;strokeWidth=10;" parent="1" edge="1">
                    <mxGeometry width="50" height="50" relative="1" as="geometry">
                        <mxPoint x="4780" y="190" as="sourcePoint"/>
                        <mxPoint x="4720" y="170" as="targetPoint"/>
                    </mxGeometry>
                </mxCell>
                <mxCell id="uBmhupHGeQe9Bv0V8wx_-128" value="" style="endArrow=none;html=1;strokeWidth=10;" parent="1" edge="1">
                    <mxGeometry width="50" height="50" relative="1" as="geometry">
                        <mxPoint x="4780" y="230" as="sourcePoint"/>
                        <mxPoint x="4720" y="210" as="targetPoint"/>
                    </mxGeometry>
                </mxCell>
                <mxCell id="uBmhupHGeQe9Bv0V8wx_-129" value="" style="endArrow=none;html=1;strokeWidth=10;" parent="1" edge="1">
                    <mxGeometry width="50" height="50" relative="1" as="geometry">
                        <mxPoint x="4780" y="190" as="sourcePoint"/>
                        <mxPoint x="4720" y="210" as="targetPoint"/>
                    </mxGeometry>
                </mxCell>
                <mxCell id="uBmhupHGeQe9Bv0V8wx_-130" value="" style="endArrow=none;html=1;strokeWidth=10;" parent="1" edge="1">
                    <mxGeometry width="50" height="50" relative="1" as="geometry">
                        <mxPoint x="4780" y="150" as="sourcePoint"/>
                        <mxPoint x="4720" y="170" as="targetPoint"/>
                    </mxGeometry>
                </mxCell>
                <mxCell id="uBmhupHGeQe9Bv0V8wx_-131" value="" style="endArrow=none;html=1;strokeWidth=10;" parent="1" edge="1">
                    <mxGeometry width="50" height="50" relative="1" as="geometry">
                        <mxPoint x="4780" y="230" as="sourcePoint"/>
                        <mxPoint x="4720" y="250" as="targetPoint"/>
                    </mxGeometry>
                </mxCell>
                <mxCell id="uBmhupHGeQe9Bv0V8wx_-132" value="" style="endArrow=none;html=1;strokeWidth=10;" parent="1" edge="1">
                    <mxGeometry width="50" height="50" relative="1" as="geometry">
                        <mxPoint x="4750" y="260" as="sourcePoint"/>
                        <mxPoint x="4720" y="250" as="targetPoint"/>
                    </mxGeometry>
                </mxCell>
                <mxCell id="uBmhupHGeQe9Bv0V8wx_-133" value="" style="endArrow=none;html=1;strokeWidth=10;" parent="1" edge="1">
                    <mxGeometry width="50" height="50" relative="1" as="geometry">
                        <mxPoint x="4750" y="320" as="sourcePoint"/>
                        <mxPoint x="4750" y="260" as="targetPoint"/>
                    </mxGeometry>
                </mxCell>
                <mxCell id="uBmhupHGeQe9Bv0V8wx_-135" value="" style="endArrow=none;html=1;strokeWidth=10;" parent="1" edge="1">
                    <mxGeometry width="50" height="50" relative="1" as="geometry">
                        <mxPoint x="5000" y="100" as="sourcePoint"/>
                        <mxPoint x="5500" y="100" as="targetPoint"/>
                    </mxGeometry>
                </mxCell>
                <mxCell id="uBmhupHGeQe9Bv0V8wx_-136" value="" style="endArrow=none;html=1;strokeWidth=10;" parent="1" edge="1">
                    <mxGeometry width="50" height="50" relative="1" as="geometry">
                        <mxPoint x="5250" y="140" as="sourcePoint"/>
                        <mxPoint x="5250" y="100" as="targetPoint"/>
                    </mxGeometry>
                </mxCell>
                <mxCell id="uBmhupHGeQe9Bv0V8wx_-140" value="" style="endArrow=none;html=1;strokeWidth=10;" parent="1" edge="1">
                    <mxGeometry width="50" height="50" relative="1" as="geometry">
                        <mxPoint x="5250" y="420" as="sourcePoint"/>
                        <mxPoint x="5250" y="420" as="targetPoint"/>
                        <Array as="points">
                            <mxPoint x="5310" y="420"/>
                            <mxPoint x="5250" y="470"/>
                            <mxPoint x="5190" y="420"/>
                        </Array>
                    </mxGeometry>
                </mxCell>
                <mxCell id="uBmhupHGeQe9Bv0V8wx_-141" value="" style="endArrow=none;html=1;strokeWidth=10;" parent="1" edge="1">
                    <mxGeometry width="50" height="50" relative="1" as="geometry">
                        <mxPoint x="5280" y="150" as="sourcePoint"/>
                        <mxPoint x="5250" y="140" as="targetPoint"/>
                    </mxGeometry>
                </mxCell>
                <mxCell id="uBmhupHGeQe9Bv0V8wx_-142" value="" style="endArrow=none;html=1;strokeWidth=10;" parent="1" edge="1">
                    <mxGeometry width="50" height="50" relative="1" as="geometry">
                        <mxPoint x="5280" y="190" as="sourcePoint"/>
                        <mxPoint x="5220" y="170" as="targetPoint"/>
                    </mxGeometry>
                </mxCell>
                <mxCell id="uBmhupHGeQe9Bv0V8wx_-143" value="" style="endArrow=none;html=1;strokeWidth=10;" parent="1" edge="1">
                    <mxGeometry width="50" height="50" relative="1" as="geometry">
                        <mxPoint x="5280" y="230" as="sourcePoint"/>
                        <mxPoint x="5220" y="210" as="targetPoint"/>
                    </mxGeometry>
                </mxCell>
                <mxCell id="uBmhupHGeQe9Bv0V8wx_-144" value="" style="endArrow=none;html=1;strokeWidth=10;" parent="1" edge="1">
                    <mxGeometry width="50" height="50" relative="1" as="geometry">
                        <mxPoint x="5280" y="190" as="sourcePoint"/>
                        <mxPoint x="5220" y="210" as="targetPoint"/>
                    </mxGeometry>
                </mxCell>
                <mxCell id="uBmhupHGeQe9Bv0V8wx_-145" value="" style="endArrow=none;html=1;strokeWidth=10;" parent="1" edge="1">
                    <mxGeometry width="50" height="50" relative="1" as="geometry">
                        <mxPoint x="5280" y="150" as="sourcePoint"/>
                        <mxPoint x="5220" y="170" as="targetPoint"/>
                    </mxGeometry>
                </mxCell>
                <mxCell id="uBmhupHGeQe9Bv0V8wx_-146" value="" style="endArrow=none;html=1;strokeWidth=10;" parent="1" edge="1">
                    <mxGeometry width="50" height="50" relative="1" as="geometry">
                        <mxPoint x="5280" y="230" as="sourcePoint"/>
                        <mxPoint x="5220" y="250" as="targetPoint"/>
                    </mxGeometry>
                </mxCell>
                <mxCell id="uBmhupHGeQe9Bv0V8wx_-147" value="" style="endArrow=none;html=1;strokeWidth=10;" parent="1" edge="1">
                    <mxGeometry width="50" height="50" relative="1" as="geometry">
                        <mxPoint x="5250" y="260" as="sourcePoint"/>
                        <mxPoint x="5220" y="250" as="targetPoint"/>
                    </mxGeometry>
                </mxCell>
                <mxCell id="uBmhupHGeQe9Bv0V8wx_-150" value="" style="endArrow=none;html=1;strokeWidth=10;curved=1;" parent="1" edge="1">
                    <mxGeometry width="50" height="50" relative="1" as="geometry">
                        <mxPoint x="5250" y="400" as="sourcePoint"/>
                        <mxPoint x="5250" y="360" as="targetPoint"/>
                        <Array as="points">
                            <mxPoint x="5200" y="380"/>
                        </Array>
                    </mxGeometry>
                </mxCell>
                <mxCell id="uBmhupHGeQe9Bv0V8wx_-151" value="" style="endArrow=none;html=1;strokeWidth=10;curved=1;" parent="1" edge="1">
                    <mxGeometry width="50" height="50" relative="1" as="geometry">
                        <mxPoint x="5250" y="360" as="sourcePoint"/>
                        <mxPoint x="5250" y="320" as="targetPoint"/>
                        <Array as="points">
                            <mxPoint x="5200" y="340"/>
                        </Array>
                    </mxGeometry>
                </mxCell>
                <mxCell id="uBmhupHGeQe9Bv0V8wx_-152" value="" style="endArrow=none;html=1;strokeWidth=10;curved=1;" parent="1" edge="1">
                    <mxGeometry width="50" height="50" relative="1" as="geometry">
                        <mxPoint x="5250" y="320" as="sourcePoint"/>
                        <mxPoint x="5250" y="280" as="targetPoint"/>
                        <Array as="points">
                            <mxPoint x="5200" y="300"/>
                        </Array>
                    </mxGeometry>
                </mxCell>
                <mxCell id="uBmhupHGeQe9Bv0V8wx_-155" value="" style="endArrow=none;html=1;strokeWidth=10;" parent="1" edge="1">
                    <mxGeometry width="50" height="50" relative="1" as="geometry">
                        <mxPoint x="5250" y="280" as="sourcePoint"/>
                        <mxPoint x="5249.659999999999" y="259.9999999999999" as="targetPoint"/>
                    </mxGeometry>
                </mxCell>
                <mxCell id="uBmhupHGeQe9Bv0V8wx_-156" value="" style="endArrow=none;html=1;strokeWidth=10;" parent="1" edge="1">
                    <mxGeometry width="50" height="50" relative="1" as="geometry">
                        <mxPoint x="5249.999999999999" y="420" as="sourcePoint"/>
                        <mxPoint x="5249.659999999999" y="399.9999999999999" as="targetPoint"/>
                    </mxGeometry>
                </mxCell>
                <mxCell id="uBmhupHGeQe9Bv0V8wx_-158" value="" style="endArrow=none;html=1;strokeWidth=10;" parent="1" edge="1">
                    <mxGeometry width="50" height="50" relative="1" as="geometry">
                        <mxPoint x="5500" y="100" as="sourcePoint"/>
                        <mxPoint x="6000" y="100" as="targetPoint"/>
                    </mxGeometry>
                </mxCell>
                <mxCell id="uBmhupHGeQe9Bv0V8wx_-159" value="" style="endArrow=none;html=1;strokeWidth=10;" parent="1" edge="1">
                    <mxGeometry width="50" height="50" relative="1" as="geometry">
                        <mxPoint x="5620" y="140" as="sourcePoint"/>
                        <mxPoint x="5620" y="100" as="targetPoint"/>
                    </mxGeometry>
                </mxCell>
                <mxCell id="uBmhupHGeQe9Bv0V8wx_-161" value="" style="endArrow=none;html=1;strokeWidth=10;" parent="1" edge="1">
                    <mxGeometry width="50" height="50" relative="1" as="geometry">
                        <mxPoint x="5650" y="150" as="sourcePoint"/>
                        <mxPoint x="5620" y="140" as="targetPoint"/>
                    </mxGeometry>
                </mxCell>
                <mxCell id="uBmhupHGeQe9Bv0V8wx_-162" value="" style="endArrow=none;html=1;strokeWidth=10;" parent="1" edge="1">
                    <mxGeometry width="50" height="50" relative="1" as="geometry">
                        <mxPoint x="5650" y="190" as="sourcePoint"/>
                        <mxPoint x="5590" y="170" as="targetPoint"/>
                    </mxGeometry>
                </mxCell>
                <mxCell id="uBmhupHGeQe9Bv0V8wx_-163" value="" style="endArrow=none;html=1;strokeWidth=10;" parent="1" edge="1">
                    <mxGeometry width="50" height="50" relative="1" as="geometry">
                        <mxPoint x="5650" y="230" as="sourcePoint"/>
                        <mxPoint x="5590" y="210" as="targetPoint"/>
                    </mxGeometry>
                </mxCell>
                <mxCell id="uBmhupHGeQe9Bv0V8wx_-164" value="" style="endArrow=none;html=1;strokeWidth=10;" parent="1" edge="1">
                    <mxGeometry width="50" height="50" relative="1" as="geometry">
                        <mxPoint x="5650" y="190" as="sourcePoint"/>
                        <mxPoint x="5590" y="210" as="targetPoint"/>
                    </mxGeometry>
                </mxCell>
                <mxCell id="uBmhupHGeQe9Bv0V8wx_-165" value="" style="endArrow=none;html=1;strokeWidth=10;" parent="1" edge="1">
                    <mxGeometry width="50" height="50" relative="1" as="geometry">
                        <mxPoint x="5650" y="150" as="sourcePoint"/>
                        <mxPoint x="5590" y="170" as="targetPoint"/>
                    </mxGeometry>
                </mxCell>
                <mxCell id="uBmhupHGeQe9Bv0V8wx_-166" value="" style="endArrow=none;html=1;strokeWidth=10;" parent="1" edge="1">
                    <mxGeometry width="50" height="50" relative="1" as="geometry">
                        <mxPoint x="5650" y="230" as="sourcePoint"/>
                        <mxPoint x="5590" y="250" as="targetPoint"/>
                    </mxGeometry>
                </mxCell>
                <mxCell id="uBmhupHGeQe9Bv0V8wx_-167" value="" style="endArrow=none;html=1;strokeWidth=10;" parent="1" edge="1">
                    <mxGeometry width="50" height="50" relative="1" as="geometry">
                        <mxPoint x="5620" y="260" as="sourcePoint"/>
                        <mxPoint x="5590" y="250" as="targetPoint"/>
                    </mxGeometry>
                </mxCell>
                <mxCell id="uBmhupHGeQe9Bv0V8wx_-176" value="" style="endArrow=none;html=1;strokeWidth=10;curved=1;" parent="1" edge="1">
                    <mxGeometry width="50" height="50" relative="1" as="geometry">
                        <mxPoint x="5680" y="285" as="sourcePoint"/>
                        <mxPoint x="5720" y="285" as="targetPoint"/>
                        <Array as="points">
                            <mxPoint x="5700" y="235"/>
                        </Array>
                    </mxGeometry>
                </mxCell>
                <mxCell id="uBmhupHGeQe9Bv0V8wx_-177" value="" style="endArrow=none;html=1;strokeWidth=10;curved=1;" parent="1" edge="1">
                    <mxGeometry width="50" height="50" relative="1" as="geometry">
                        <mxPoint x="5720" y="285" as="sourcePoint"/>
                        <mxPoint x="5760" y="285" as="targetPoint"/>
                        <Array as="points">
                            <mxPoint x="5740" y="235"/>
                        </Array>
                    </mxGeometry>
                </mxCell>
                <mxCell id="uBmhupHGeQe9Bv0V8wx_-178" value="" style="endArrow=none;html=1;strokeWidth=10;curved=1;" parent="1" edge="1">
                    <mxGeometry width="50" height="50" relative="1" as="geometry">
                        <mxPoint x="5760" y="285" as="sourcePoint"/>
                        <mxPoint x="5800" y="285" as="targetPoint"/>
                        <Array as="points">
                            <mxPoint x="5780" y="235"/>
                        </Array>
                    </mxGeometry>
                </mxCell>
                <mxCell id="uBmhupHGeQe9Bv0V8wx_-179" value="" style="endArrow=none;html=1;strokeWidth=12;" parent="1" edge="1">
                    <mxGeometry width="50" height="50" relative="1" as="geometry">
                        <mxPoint x="5810" y="310" as="sourcePoint"/>
                        <mxPoint x="5950" y="310" as="targetPoint"/>
                    </mxGeometry>
                </mxCell>
                <mxCell id="uBmhupHGeQe9Bv0V8wx_-180" value="" style="endArrow=none;html=1;strokeWidth=12;" parent="1" edge="1">
                    <mxGeometry width="50" height="50" relative="1" as="geometry">
                        <mxPoint x="5810" y="340" as="sourcePoint"/>
                        <mxPoint x="5950" y="340" as="targetPoint"/>
                    </mxGeometry>
                </mxCell>
                <mxCell id="uBmhupHGeQe9Bv0V8wx_-181" value="" style="endArrow=none;html=1;strokeWidth=10;" parent="1" edge="1">
                    <mxGeometry width="50" height="50" relative="1" as="geometry">
                        <mxPoint x="5880" y="410" as="sourcePoint"/>
                        <mxPoint x="5880" y="340" as="targetPoint"/>
                    </mxGeometry>
                </mxCell>
                <mxCell id="uBmhupHGeQe9Bv0V8wx_-182" value="" style="endArrow=none;html=1;strokeWidth=10;" parent="1" edge="1">
                    <mxGeometry width="50" height="50" relative="1" as="geometry">
                        <mxPoint x="5880" y="410" as="sourcePoint"/>
                        <mxPoint x="5880" y="410" as="targetPoint"/>
                        <Array as="points">
                            <mxPoint x="5940" y="410"/>
                            <mxPoint x="5880" y="460"/>
                            <mxPoint x="5820" y="410"/>
                        </Array>
                    </mxGeometry>
                </mxCell>
                <mxCell id="uBmhupHGeQe9Bv0V8wx_-185" value="" style="endArrow=none;html=1;strokeWidth=10;" parent="1" edge="1">
                    <mxGeometry width="50" height="50" relative="1" as="geometry">
                        <mxPoint x="5620" y="280" as="sourcePoint"/>
                        <mxPoint x="5620" y="260" as="targetPoint"/>
                    </mxGeometry>
                </mxCell>
                <mxCell id="uBmhupHGeQe9Bv0V8wx_-186" value="" style="endArrow=none;html=1;strokeWidth=10;" parent="1" edge="1">
                    <mxGeometry width="50" height="50" relative="1" as="geometry">
                        <mxPoint x="5620" y="280" as="sourcePoint"/>
                        <mxPoint x="5680" y="280" as="targetPoint"/>
                    </mxGeometry>
                </mxCell>
                <mxCell id="uBmhupHGeQe9Bv0V8wx_-187" value="" style="endArrow=none;html=1;strokeWidth=10;" parent="1" edge="1">
                    <mxGeometry width="50" height="50" relative="1" as="geometry">
                        <mxPoint x="5800" y="280" as="sourcePoint"/>
                        <mxPoint x="5880" y="280" as="targetPoint"/>
                    </mxGeometry>
                </mxCell>
                <mxCell id="uBmhupHGeQe9Bv0V8wx_-188" value="" style="endArrow=none;html=1;strokeWidth=10;" parent="1" edge="1">
                    <mxGeometry width="50" height="50" relative="1" as="geometry">
                        <mxPoint x="5880" y="310" as="sourcePoint"/>
                        <mxPoint x="5880" y="280" as="targetPoint"/>
                    </mxGeometry>
                </mxCell>
                <mxCell id="uBmhupHGeQe9Bv0V8wx_-198" value="" style="endArrow=none;html=1;strokeWidth=10;" parent="1" edge="1">
                    <mxGeometry width="50" height="50" relative="1" as="geometry">
                        <mxPoint x="-180" y="100" as="sourcePoint"/>
                        <mxPoint y="100" as="targetPoint"/>
                    </mxGeometry>
                </mxCell>
                <mxCell id="uBmhupHGeQe9Bv0V8wx_-199" value="&lt;font style=&quot;font-size: 32px&quot;&gt;&lt;i&gt;BLACK BOX&lt;/i&gt;&lt;/font&gt;" style="rounded=0;whiteSpace=wrap;html=1;glass=0;strokeColor=#000000;strokeWidth=10;fillColor=#CCCCCC;" parent="1" vertex="1">
                    <mxGeometry x="-420" y="30" width="240" height="140" as="geometry"/>
                </mxCell>
                <mxCell id="uBmhupHGeQe9Bv0V8wx_-203" value="" style="endArrow=none;html=1;strokeWidth=1;" parent="1" edge="1">
                    <mxGeometry width="50" height="50" relative="1" as="geometry">
                        <mxPoint x="-500" y="410" as="sourcePoint"/>
                        <mxPoint x="-500" y="10" as="targetPoint"/>
                    </mxGeometry>
                </mxCell>
                <mxCell id="20XGR4WP0BEkxepGxLnA-7" value="&lt;font style=&quot;font-size: 32px&quot;&gt;custom&lt;br&gt;Z vs F&lt;/font&gt;" style="rounded=0;whiteSpace=wrap;html=1;glass=0;strokeColor=#000000;fillColor=none;strokeWidth=10;" parent="1" vertex="1">
                    <mxGeometry x="6180" y="150" width="140" height="120" as="geometry"/>
                </mxCell>
                <mxCell id="EzZwEtxHJpUHMYqleFti-4" value="" style="endArrow=none;html=1;strokeWidth=10;" parent="1" target="20XGR4WP0BEkxepGxLnA-7" edge="1">
                    <mxGeometry width="50" height="50" relative="1" as="geometry">
                        <mxPoint x="6000" y="100" as="sourcePoint"/>
                        <mxPoint x="6500" y="130.0000000000001" as="targetPoint"/>
                        <Array as="points">
                            <mxPoint x="6040" y="100"/>
                            <mxPoint x="6040" y="210"/>
                        </Array>
                    </mxGeometry>
                </mxCell>
                <mxCell id="EzZwEtxHJpUHMYqleFti-6" value="" style="endArrow=none;html=1;strokeWidth=10;" parent="1" source="20XGR4WP0BEkxepGxLnA-7" edge="1">
                    <mxGeometry width="50" height="50" relative="1" as="geometry">
                        <mxPoint x="6320" y="100.00000000000011" as="sourcePoint"/>
                        <mxPoint x="6500" y="100" as="targetPoint"/>
                        <Array as="points">
                            <mxPoint x="6460" y="210"/>
                            <mxPoint x="6460" y="100"/>
                        </Array>
                    </mxGeometry>
                </mxCell>
                <mxCell id="22" value="" style="endArrow=none;html=1;strokeWidth=10;" edge="1" parent="1">
                    <mxGeometry width="50" height="50" relative="1" as="geometry">
                        <mxPoint x="6930" y="100" as="sourcePoint"/>
                        <mxPoint x="7000" y="100" as="targetPoint"/>
                    </mxGeometry>
                </mxCell>
                <mxCell id="42" value="" style="endArrow=none;html=1;strokeWidth=10;" edge="1" parent="1">
                    <mxGeometry width="50" height="50" relative="1" as="geometry">
                        <mxPoint x="6570" y="190" as="sourcePoint"/>
                        <mxPoint x="6729" y="190" as="targetPoint"/>
                    </mxGeometry>
                </mxCell>
                <mxCell id="43" value="" style="endArrow=none;html=1;strokeWidth=12;" edge="1" parent="1">
                    <mxGeometry width="50" height="50" relative="1" as="geometry">
                        <mxPoint x="6734" y="110" as="sourcePoint"/>
                        <mxPoint x="6734" y="250" as="targetPoint"/>
                    </mxGeometry>
                </mxCell>
                <mxCell id="44" value="" style="endArrow=none;html=1;strokeWidth=12;" edge="1" parent="1">
                    <mxGeometry width="50" height="50" relative="1" as="geometry">
                        <mxPoint x="6764" y="110" as="sourcePoint"/>
                        <mxPoint x="6764" y="250" as="targetPoint"/>
                    </mxGeometry>
                </mxCell>
                <mxCell id="45" value="" style="endArrow=none;html=1;strokeWidth=10;" edge="1" parent="1">
                    <mxGeometry width="50" height="50" relative="1" as="geometry">
                        <mxPoint x="6769" y="190" as="sourcePoint"/>
                        <mxPoint x="6930" y="190" as="targetPoint"/>
                    </mxGeometry>
                </mxCell>
                <mxCell id="46" value="" style="endArrow=none;html=1;strokeWidth=10;" edge="1" parent="1">
                    <mxGeometry width="50" height="50" relative="1" as="geometry">
                        <mxPoint x="6570" y="310" as="sourcePoint"/>
                        <mxPoint x="6690" y="310" as="targetPoint"/>
                    </mxGeometry>
                </mxCell>
                <mxCell id="47" value="" style="endArrow=none;html=1;strokeWidth=10;" edge="1" parent="1">
                    <mxGeometry width="50" height="50" relative="1" as="geometry">
                        <mxPoint x="6810" y="310" as="sourcePoint"/>
                        <mxPoint x="6930" y="310" as="targetPoint"/>
                    </mxGeometry>
                </mxCell>
                <mxCell id="48" value="" style="endArrow=none;html=1;strokeWidth=10;curved=1;" edge="1" parent="1">
                    <mxGeometry width="50" height="50" relative="1" as="geometry">
                        <mxPoint x="6690" y="310" as="sourcePoint"/>
                        <mxPoint x="6730" y="310" as="targetPoint"/>
                        <Array as="points">
                            <mxPoint x="6710" y="260"/>
                        </Array>
                    </mxGeometry>
                </mxCell>
                <mxCell id="49" value="" style="endArrow=none;html=1;strokeWidth=10;curved=1;" edge="1" parent="1">
                    <mxGeometry width="50" height="50" relative="1" as="geometry">
                        <mxPoint x="6730" y="310" as="sourcePoint"/>
                        <mxPoint x="6770" y="310" as="targetPoint"/>
                        <Array as="points">
                            <mxPoint x="6750" y="260"/>
                        </Array>
                    </mxGeometry>
                </mxCell>
                <mxCell id="50" value="" style="endArrow=none;html=1;strokeWidth=10;curved=1;" edge="1" parent="1">
                    <mxGeometry width="50" height="50" relative="1" as="geometry">
                        <mxPoint x="6770" y="310" as="sourcePoint"/>
                        <mxPoint x="6810" y="310" as="targetPoint"/>
                        <Array as="points">
                            <mxPoint x="6790" y="260"/>
                        </Array>
                    </mxGeometry>
                </mxCell>
                <mxCell id="51" value="" style="endArrow=none;html=1;strokeWidth=10;" edge="1" parent="1">
                    <mxGeometry width="50" height="50" relative="1" as="geometry">
                        <mxPoint x="6570" y="410" as="sourcePoint"/>
                        <mxPoint x="6690" y="410" as="targetPoint"/>
                    </mxGeometry>
                </mxCell>
                <mxCell id="52" value="" style="endArrow=none;html=1;strokeWidth=10;" edge="1" parent="1">
                    <mxGeometry width="50" height="50" relative="1" as="geometry">
                        <mxPoint x="6810" y="410" as="sourcePoint"/>
                        <mxPoint x="6930" y="410" as="targetPoint"/>
                    </mxGeometry>
                </mxCell>
                <mxCell id="53" value="" style="endArrow=none;html=1;strokeWidth=10;" edge="1" parent="1">
                    <mxGeometry width="50" height="50" relative="1" as="geometry">
                        <mxPoint x="6700" y="380" as="sourcePoint"/>
                        <mxPoint x="6690" y="410" as="targetPoint"/>
                    </mxGeometry>
                </mxCell>
                <mxCell id="54" value="" style="endArrow=none;html=1;strokeWidth=10;" edge="1" parent="1">
                    <mxGeometry width="50" height="50" relative="1" as="geometry">
                        <mxPoint x="6700" y="380" as="sourcePoint"/>
                        <mxPoint x="6720" y="440" as="targetPoint"/>
                    </mxGeometry>
                </mxCell>
                <mxCell id="55" value="" style="endArrow=none;html=1;strokeWidth=10;" edge="1" parent="1">
                    <mxGeometry width="50" height="50" relative="1" as="geometry">
                        <mxPoint x="6740" y="380" as="sourcePoint"/>
                        <mxPoint x="6760" y="440" as="targetPoint"/>
                    </mxGeometry>
                </mxCell>
                <mxCell id="56" value="" style="endArrow=none;html=1;strokeWidth=10;" edge="1" parent="1">
                    <mxGeometry width="50" height="50" relative="1" as="geometry">
                        <mxPoint x="6780" y="380" as="sourcePoint"/>
                        <mxPoint x="6800" y="440" as="targetPoint"/>
                    </mxGeometry>
                </mxCell>
                <mxCell id="57" value="" style="endArrow=none;html=1;strokeWidth=10;" edge="1" parent="1">
                    <mxGeometry width="50" height="50" relative="1" as="geometry">
                        <mxPoint x="6740" y="380" as="sourcePoint"/>
                        <mxPoint x="6720" y="440" as="targetPoint"/>
                    </mxGeometry>
                </mxCell>
                <mxCell id="58" value="" style="endArrow=none;html=1;strokeWidth=10;" edge="1" parent="1">
                    <mxGeometry width="50" height="50" relative="1" as="geometry">
                        <mxPoint x="6780" y="380" as="sourcePoint"/>
                        <mxPoint x="6760" y="440" as="targetPoint"/>
                    </mxGeometry>
                </mxCell>
                <mxCell id="59" value="" style="endArrow=none;html=1;strokeWidth=10;" edge="1" parent="1">
                    <mxGeometry width="50" height="50" relative="1" as="geometry">
                        <mxPoint x="6810" y="410" as="sourcePoint"/>
                        <mxPoint x="6800" y="440" as="targetPoint"/>
                    </mxGeometry>
                </mxCell>
                <mxCell id="60" value="" style="endArrow=none;html=1;strokeWidth=10;" edge="1" parent="1">
                    <mxGeometry width="50" height="50" relative="1" as="geometry">
                        <mxPoint x="6570" y="410" as="sourcePoint"/>
                        <mxPoint x="6570" y="190" as="targetPoint"/>
                    </mxGeometry>
                </mxCell>
                <mxCell id="61" value="" style="endArrow=none;html=1;strokeWidth=10;" edge="1" parent="1">
                    <mxGeometry width="50" height="50" relative="1" as="geometry">
                        <mxPoint x="6930" y="190" as="sourcePoint"/>
                        <mxPoint x="6930" y="410" as="targetPoint"/>
                    </mxGeometry>
                </mxCell>
                <mxCell id="62" value="" style="endArrow=none;html=1;strokeWidth=10;" edge="1" parent="1">
                    <mxGeometry width="50" height="50" relative="1" as="geometry">
                        <mxPoint x="6930" y="190" as="sourcePoint"/>
                        <mxPoint x="6930" y="100" as="targetPoint"/>
                    </mxGeometry>
                </mxCell>
                <mxCell id="65" value="" style="endArrow=none;html=1;strokeWidth=10;" edge="1" parent="1">
                    <mxGeometry width="50" height="50" relative="1" as="geometry">
                        <mxPoint x="6570" y="100" as="sourcePoint"/>
                        <mxPoint x="6570" y="190" as="targetPoint"/>
                    </mxGeometry>
                </mxCell>
                <mxCell id="66" value="" style="endArrow=none;html=1;strokeWidth=10;" edge="1" parent="1">
                    <mxGeometry width="50" height="50" relative="1" as="geometry">
                        <mxPoint x="6500" y="100" as="sourcePoint"/>
                        <mxPoint x="6570" y="100" as="targetPoint"/>
                    </mxGeometry>
                </mxCell>
            </root>
        </mxGraphModel>
    </diagram>
</mxfile>